<svg xmlns="http://www.w3.org/2000/svg" viewBox="0 0 512 512">
  <defs>
    <linearGradient id="grad1" x1="0%" y1="0%" x2="100%" y2="100%">
      <stop offset="0%" style="stop-color:#10b981;stop-opacity:1" />
      <stop offset="100%" style="stop-color:#059669;stop-opacity:1" />
    </linearGradient>
    <linearGradient id="grad2" x1="0%" y1="0%" x2="100%" y2="100%">
      <stop offset="0%" style="stop-color:#34d399;stop-opacity:1" />
      <stop offset="100%" style="stop-color:#10b981;stop-opacity:1" />
    </linearGradient>
  </defs>

  <!-- Background rounded square -->
  <rect x="32" y="32" width="448" height="448" rx="80" ry="80" fill="url(#grad1)"/>

  <!-- House roof shape -->
  <path d="M256 100 L420 220 L400 220 L400 380 L310 380 L310 280 L202 280 L202 380 L112 380 L112 220 L92 220 Z" fill="white" opacity="0.15"/>

  <!-- Wrench icon -->
  <g transform="translate(140, 160) scale(0.45)">
    <path d="M507.73 109.1c-2.24-9.03-13.54-12.09-20.12-5.51l-74.36 74.36-67.88-11.31-11.31-67.88 74.36-74.36c6.62-6.62 3.43-17.9-5.66-20.16-47.38-11.74-99.55.91-136.58 37.93-39.64 39.64-50.55 97.1-34.05 147.2L18.74 402.76c-24.99 24.99-24.99 65.51 0 90.5 24.99 24.99 65.51 24.99 90.5 0l213.21-213.21c50.12 16.71 107.47 5.68 147.37-34.22 37.07-37.07 49.7-89.32 37.91-136.73zM64 472c-13.25 0-24-10.75-24-24 0-13.26 10.75-24 24-24s24 10.74 24 24c0 13.25-10.75 24-24 24z" fill="white"/>
  </g>

  <!-- FK Letters -->
  <text x="256" y="420" font-family="Arial, sans-serif" font-size="120" font-weight="bold" fill="white" text-anchor="middle">FK</text>
</svg>